<?xml version="1.0" encoding="utf-8"?>
<!-- Generator: Adobe Illustrator 22.0.1, SVG Export Plug-In . SVG Version: 6.00 Build 0)  -->
<svg version="1.1" id="Layer_1" xmlns="http://www.w3.org/2000/svg" xmlns:xlink="http://www.w3.org/1999/xlink" x="0px" y="0px"
	 viewBox="0 0 250 50" style="enable-background:new 0 0 250 50;" xml:space="preserve">
<path style="fill:#567483;" d="M75,29.867h2.104v12.939H75V29.867z M88.448,39.582l-7.666-9.714h-2.52v12.939h2.103v-9.877
	l7.796,9.877h2.391V29.867h-2.104V39.582z M101.734,35.611c-0.279-0.219-0.643-0.375-1.08-0.463
	c-0.404-0.082-0.972-0.122-1.737-0.122h-3.329c-1.228,0-1.606-0.22-1.712-0.313c-0.215-0.192-0.329-0.619-0.329-1.235
	c0-0.602,0.116-1.018,0.332-1.204c0.137-0.117,0.533-0.312,1.635-0.312h3.161c1.11,0,1.441,0.199,1.531,0.284
	c0.107,0.102,0.288,0.398,0.288,1.246v0.663h2.066v-0.825c0-0.616-0.057-1.143-0.169-1.567c-0.121-0.456-0.315-0.834-0.582-1.132
	c-0.324-0.348-0.768-0.592-1.319-0.726c-0.506-0.124-1.334-0.185-2.529-0.185h-2.103c-1.651,0-2.779,0.282-3.447,0.862
	c-0.676,0.591-1.018,1.585-1.018,2.956c0,1.353,0.292,2.301,0.891,2.897c0.597,0.594,1.558,0.884,2.938,0.884h3.916
	c0.935,0,1.214,0.191,1.293,0.275c0.1,0.106,0.268,0.405,0.268,1.224c0,0.743-0.139,1.253-0.405,1.475
	c-0.164,0.138-0.662,0.37-2.154,0.37h-2.42c-1.221,0-1.684-0.215-1.848-0.342c-0.258-0.199-0.389-0.6-0.389-1.19
	c0-0.086,0.005-0.235,0.014-0.482l0.043-0.706h-2.046l-0.049,0.424c-0.005,0.046-0.008,0.108-0.008,0.177
	c-0.011,0.367-0.017,0.627-0.017,0.781c0,1.261,0.32,2.194,0.949,2.772c0.627,0.577,1.603,0.857,2.984,0.857h3.142
	c1.584,0,2.672-0.301,3.328-0.92c0.658-0.626,0.978-1.651,0.978-3.132c0-0.889-0.073-1.557-0.223-2.044
	C102.412,36.331,102.126,35.909,101.734,35.611z M113.014,38.114c0,0.611-0.021,1.05-0.065,1.306
	c-0.037,0.226-0.102,0.422-0.194,0.59c-0.114,0.212-0.27,0.363-0.474,0.457c-0.236,0.108-0.591,0.163-1.059,0.163h-3.808
	c-0.465,0-0.82-0.054-1.055-0.162c-0.208-0.096-0.358-0.24-0.475-0.462c-0.089-0.162-0.155-0.361-0.196-0.588
	c-0.031-0.179-0.067-0.552-0.067-1.304v-8.247h-2.143v8.247c0,0.962,0.072,1.719,0.221,2.312c0.153,0.622,0.411,1.138,0.768,1.534
	c0.336,0.37,0.771,0.635,1.292,0.786c0.488,0.14,1.191,0.208,2.152,0.208h2.832c0.971,0,1.678-0.068,2.161-0.208
	c0.526-0.152,0.957-0.42,1.277-0.791c0.349-0.393,0.604-0.924,0.755-1.575c0.148-0.62,0.22-1.389,0.22-2.355v-8.159h-2.143V38.114z
	 M150.424,29.867h2.104v12.939h-2.391l-7.795-9.877v9.877h-1.763h-0.341h-1.925l-1.216-2.637h-6.755l-1.183,2.637h-1.879h-0.483
	h-1.623v-3.148c0-0.859-0.168-1.169-0.268-1.276c-0.041-0.045-0.312-0.272-1.495-0.272h-5.146v4.696h-2.104V29.867h7.095
	c1.601,0,2.659,0.235,3.235,0.719c0.599,0.509,0.89,1.361,0.89,2.608v1.442c0,0.847-0.145,1.468-0.442,1.899
	c-0.128,0.185-0.295,0.35-0.499,0.492c0.143,0.123,0.27,0.269,0.378,0.436c0.311,0.474,0.463,1.095,0.463,1.898v2.369l5.327-11.863
	h2.148l5.482,12.181V29.867h2.521l7.665,9.714V29.867z M125.213,33.661c0-0.91-0.185-1.19-0.264-1.267
	c-0.083-0.082-0.373-0.268-1.318-0.268h-5.364v3.642h5.364c0.948,0,1.238-0.183,1.318-0.263c0.079-0.078,0.264-0.358,0.264-1.273
	V33.661z M136.1,37.943l-2.402-5.25l-2.363,5.25H136.1z M165.249,38.224v-0.478h-2.015v0.808c0,1.044-0.196,1.489-0.361,1.676
	c-0.219,0.25-0.713,0.383-1.43,0.383h-4.001c-0.482,0-0.847-0.053-1.087-0.16c-0.208-0.092-0.367-0.242-0.485-0.459
	c-0.093-0.173-0.163-0.389-0.204-0.636c-0.032-0.198-0.069-0.612-0.069-1.463v-3.179c0-0.852,0.037-1.266,0.068-1.46
	c0.043-0.254,0.111-0.471,0.203-0.639c0.121-0.221,0.28-0.372,0.488-0.464c0.165-0.073,0.487-0.16,1.086-0.16h4.013
	c0.649,0,1.091,0.133,1.314,0.393c0.165,0.194,0.363,0.639,0.363,1.653v0.657h1.986l0.028-0.449c0.005-0.079,0.008-0.172,0.009-0.28
	l0.005-0.387c0-1.437-0.311-2.421-0.953-3.01c-0.628-0.574-1.734-0.853-3.384-0.853h-2.92c-0.971,0-1.684,0.068-2.181,0.207
	c-0.535,0.152-0.977,0.417-1.313,0.787c-0.361,0.396-0.624,0.935-0.784,1.606c-0.146,0.629-0.221,1.468-0.221,2.496v3.263
	c0,0.949,0.075,1.734,0.222,2.334c0.16,0.634,0.422,1.155,0.783,1.55c0.339,0.37,0.774,0.634,1.29,0.784
	c0.484,0.14,1.208,0.208,2.213,0.208h2.91c1.047,0,1.797-0.061,2.29-0.185c0.543-0.136,0.977-0.383,1.281-0.727
	c0.311-0.336,0.539-0.775,0.677-1.303c0.128-0.488,0.19-1.116,0.19-1.92c0-0.065-0.002-0.163-0.007-0.302
	C165.25,38.393,165.249,38.295,165.249,38.224z M176.113,32.159v-2.292h-10.085v12.939h10.085v-2.291h-8.007v-3.263h7.672V34.96
	h-7.672v-2.8H176.113z"/>
<rect x="75" y="24.125" style="fill:#567483;" width="175" height="1.75"/>
<path style="fill:#21409A;" d="M167.913,7.194l-5.469,12.18V7.194h-2.104v9.714l-7.666-9.714h-2.521v12.181L144.67,7.194h-2.149
	l-5.471,12.185V7.194h-2.475l-5.285,9.878l-5.278-9.878h-2.427v12.939h2.079v-9.137l4.935,9.137h1.437l4.935-9.137v9.137h1.741
	h0.338h2.023l1.183-2.637h6.755l1.215,2.637h1.925h0.341h1.763v-9.877l7.795,9.877h2.05h0.341h2.021l1.184-2.637h6.754l1.215,2.637
	h2.266l-5.824-12.939H167.913z M141.25,15.27l2.364-5.25l2.402,5.25H141.25z M166.64,15.27l2.364-5.25l2.402,5.25H166.64z
	 M180.745,13.127h6.872v2.426c0,1.217-0.06,2.042-0.183,2.52c-0.131,0.511-0.362,0.949-0.685,1.299
	c-0.308,0.344-0.741,0.589-1.281,0.724c-0.494,0.124-1.246,0.185-2.296,0.185h-3.31c-0.985,0-1.703-0.069-2.196-0.211
	c-0.53-0.154-0.971-0.423-1.312-0.801c-0.357-0.395-0.619-0.913-0.778-1.538c-0.148-0.591-0.223-1.373-0.223-2.323v-3.267
	c0-1.028,0.074-1.867,0.221-2.496c0.158-0.668,0.42-1.207,0.779-1.604c0.342-0.373,0.783-0.637,1.315-0.789
	c0.5-0.139,1.213-0.207,2.181-0.207h3.323c1.655,0,2.767,0.278,3.398,0.852c0.646,0.587,0.96,1.572,0.96,3.011
	c0,0.174-0.002,0.304-0.004,0.397c0,0.066-0.003,0.142-0.007,0.214l-0.02,0.458l-0.46,0.047H185.5v-0.657
	c0-1.014-0.197-1.459-0.363-1.653c-0.275-0.325-0.872-0.393-1.324-0.393h-4.426c-0.604,0-0.924,0.087-1.085,0.159
	c-0.202,0.092-0.362,0.245-0.488,0.468c-0.089,0.164-0.157,0.38-0.2,0.635c-0.03,0.193-0.068,0.606-0.068,1.462v3.178
	c0,0.852,0.037,1.265,0.068,1.461c0.042,0.251,0.109,0.461,0.204,0.636c0.118,0.217,0.277,0.367,0.485,0.459
	c0.165,0.073,0.485,0.16,1.084,0.16h4.382c0.716,0,1.214-0.128,1.402-0.361c0.099-0.122,0.33-0.564,0.33-2.026v-0.134h-4.755V13.127
	z M188.473,7.194h10.086v2.292h-8.007v2.8h7.671v2.292h-7.671v3.263h8.007v2.291h-10.086V7.194z M212.046,7.194h2.475v12.939h-2.079
	v-9.137l-4.935,9.137h-1.437l-4.935-9.137v9.137h-2.079V7.194h2.427l5.278,9.878L212.046,7.194z M215.604,7.194h10.085v2.292h-8.006
	v2.8h7.671v2.292h-7.671v3.263h8.006v2.291h-10.085V7.194z M236.373,7.194h2.104v12.939h-2.391l-7.795-9.877v9.877h-2.104V7.194
	h2.52l7.666,9.714V7.194z M250,7.194v2.292h-4.59v10.647h-2.103V9.486h-4.59V7.194H250z M82.095,7.194H75v12.939h2.104v-4.696h5.146
	c1.183,0,1.453,0.227,1.495,0.272c0.1,0.107,0.268,0.418,0.268,1.276v3.148h2.106v-3.445c0-0.791-0.156-1.43-0.462-1.898
	c-0.109-0.167-0.235-0.313-0.379-0.436c0.204-0.142,0.37-0.306,0.499-0.492c0.298-0.43,0.442-1.051,0.442-1.899v-1.442
	c0-1.246-0.29-2.099-0.89-2.608C84.754,7.429,83.696,7.194,82.095,7.194z M84.051,11.559c0,0.916-0.185,1.195-0.264,1.273
	c-0.081,0.078-0.371,0.263-1.318,0.263h-5.365V9.452h5.365c0.945,0,1.236,0.186,1.318,0.268c0.079,0.078,0.264,0.357,0.264,1.267
	V11.559z M87.07,7.194h2.104v12.939H87.07V7.194z M101.289,14.185c0.151,0.491,0.224,1.158,0.224,2.044
	c0,1.481-0.32,2.506-0.98,3.132c-0.655,0.62-1.743,0.92-3.327,0.92h-3.142c-1.38,0-2.356-0.28-2.984-0.857
	c-0.63-0.578-0.949-1.511-0.949-2.772c0-0.154,0.006-0.414,0.017-0.78c0-0.069,0.004-0.132,0.009-0.178l0.048-0.424h2.051
	l-0.049,0.733c-0.008,0.22-0.013,0.37-0.013,0.455c0,0.59,0.131,0.99,0.388,1.19c0.165,0.127,0.626,0.342,1.849,0.342h2.42
	c1.491,0,1.99-0.233,2.155-0.371c0.264-0.221,0.404-0.732,0.404-1.474c0-0.82-0.168-1.119-0.268-1.225
	c-0.078-0.083-0.358-0.274-1.293-0.274h-3.916c-1.379,0-2.34-0.289-2.938-0.884c-0.599-0.597-0.891-1.545-0.891-2.897
	c0-1.372,0.342-2.367,1.017-2.957c0.669-0.58,1.795-0.862,3.447-0.862h2.104c1.195,0,2.023,0.061,2.529,0.185
	c0.551,0.134,0.996,0.378,1.319,0.726c0.27,0.3,0.459,0.668,0.582,1.131c0.114,0.43,0.169,0.943,0.169,1.568v0.825h-2.066v-0.663
	c0-0.848-0.18-1.144-0.287-1.246c-0.091-0.086-0.42-0.284-1.531-0.284h-3.161c-1.102,0-1.497,0.196-1.635,0.313
	c-0.216,0.185-0.332,0.602-0.332,1.203c0,0.616,0.114,1.044,0.329,1.235c0.105,0.093,0.484,0.313,1.712,0.313h3.329
	c0.764,0,1.332,0.04,1.736,0.122c0.437,0.088,0.801,0.244,1.081,0.463C100.838,13.236,101.123,13.656,101.289,14.185z
	 M107.429,13.429l7.552,6.703h-3.485l-6.168-5.584h-0.943v5.584h-2.13V7.194h2.13v5.093h0.947l5.771-5.093h3.443L107.429,13.429z"/>
<path style="fill-rule:evenodd;clip-rule:evenodd;fill:#21409A;" d="M30.797,25.093L47.511,1.575v29.576l-4.962,6.143L30.797,25.093
	z M1.218,1.22h27.41c5.946,0.353,10.343,5.604,8.473,12.949l-7.144,10.052l-7.328-7.608l1.327-2.552
	c0.259-0.358,0.354-1.367-0.201-1.561h-6.503l24.65,25.595L33.15,48.932L16.385,32.76v15.35H1.218V1.22z M48.729,1.22h15.533v46.89
	H48.729V1.22z M0,0h66.454v50H0V0z"/>
<path style="fill-rule:evenodd;clip-rule:evenodd;fill:#FFFFFF;" d="M30.797,25.093L47.511,1.575v29.576l-4.962,6.143L30.797,25.093
	z M23.756,12.5c0.555,0.194,0.46,1.203,0.201,1.561l-1.327,2.552l7.328,7.608l7.144-10.052c1.871-7.345-2.527-12.597-8.473-12.949
	H1.218v46.89h15.167V32.76L33.15,48.932l8.753-10.838L17.253,12.5H23.756z M48.729,1.22v46.89h15.533V1.22H48.729z"/>
</svg>
